# xmcd CD database file generated by OrangeCD 6.5
#
# Track frame offsets:
#	150
#	20312
#	29090
#	47422
#	72271
#	84628
#	100528
#	112470
#	126750
#	145464
#	160416
#	181771
#	198416
#	218038
#	229715
#	244509
#	261845
#	274879
#	298594
#	314829
#
# Disc length: 4425 seconds
#
# Revision: 1
# Processed by: cddbd v1.5.2PL0 Copyright (c) Steve Scherf et al.
# Submitted via: OrangeCD 6.5
#
DISCID=2d114714
DTITLE=The New Basement Tapes feat. Elvis Costello, Rhiannon Giddens, Taylor Go
DTITLE=ldsmith, Jim James, Marcus Mumford - Lost On the River
DYEAR=2014
DGENRE=Americana
TTITLE0=Down On The Bottom
TTITLE1=Married To My Hack
TTITLE2=Kansas City
TTITLE3=Spanish Mary
TTITLE4=Liberty Street
TTITLE5=Nothing To It
TTITLE6=Golden Tom - Silver Judas
TTITLE7=When I Get My Hands On You
TTITLE8=Duncan and Jimmy
TTITLE9=Florida Key
TTITLE10=Hidee Hidee Ho #11
TTITLE11=Lost On The River #12
TTITLE12=Stranger
TTITLE13=Card Shark
TTITLE14=Quick Like A Flash
TTITLE15=Hidee Hidee Ho #16
TTITLE16=Diamond Ring
TTITLE17=The Whistle Is Blowing
TTITLE18=Six Months In Kansas City (Liberty Street)
TTITLE19=Lost On The River #20
EXTD=
EXTT0=
EXTT1=
EXTT2=
EXTT3=
EXTT4=
EXTT5=
EXTT6=
EXTT7=
EXTT8=
EXTT9=
EXTT10=
EXTT11=
EXTT12=
EXTT13=
EXTT14=
EXTT15=
EXTT16=
EXTT17=
EXTT18=
EXTT19=
PLAYORDER=
